<svg width="200" height="200" viewBox="0 0 200 200" fill="none" xmlns="http://www.w3.org/2000/svg">
  <circle cx="100" cy="100" r="80" fill="#FCD34D" fill-opacity="0.3"/>
  <path d="M100 20C55.8172 20 20 55.8172 20 100C20 144.183 55.8172 180 100 180C144.183 180 180 144.183 180 100C180 55.8172 144.183 20 100 20ZM100 40C133.137 40 160 66.8629 160 100C160 133.137 133.137 160 100 160C66.8629 160 40 133.137 40 100C40 66.8629 66.8629 40 100 40Z" fill="#F59E0B" fill-opacity="0.2"/>
  <path d="M100 60L106.545 79.0909H126.727L110.091 90.9091L116.636 110L100 98.1818L83.3636 110L89.9091 90.9091L73.2727 79.0909H93.4545L100 60Z" fill="#F59E0B"/>
  <path d="M140 60L143.273 69.0909H153.182L145.273 74.5455L148.546 83.6364L140 78.1818L131.454 83.6364L134.727 74.5455L126.818 69.0909H136.727L140 60Z" fill="#F59E0B" fill-opacity="0.6"/>
  <path d="M60 120L63.2727 129.091H73.1818L65.2727 134.545L68.5455 143.636L60 138.182L51.4545 143.636L54.7273 134.545L46.8182 129.091H56.7273L60 120Z" fill="#F59E0B" fill-opacity="0.6"/>
  <path d="M170 120L171.636 125.455H177.273L172.727 128.636L174.364 134.091L170 130.909L165.636 134.091L167.273 128.636L162.727 125.455H168.364L170 120Z" fill="#F59E0B" fill-opacity="0.4"/>
  <path d="M30 80L31.6364 85.4545H37.2727L32.7273 88.6364L34.3636 94.0909L30 90.9091L25.6364 94.0909L27.2727 88.6364L22.7273 85.4545H28.3636L30 80Z" fill="#F59E0B" fill-opacity="0.4"/>
  <text x="100" y="180" text-anchor="middle" font-family="Arial" font-size="12" fill="#B45309">عيد مبارك</text>
</svg> 